{
  "asset": {
    "version": "2.0",
    "generator": "bergpark schematic-asset pipeline"
  },
  "extensionsUsed": ["KHR_materials_unlit"],
  "scene": 0,
  "scenes": [
    {
      "name": "Aqueduct schematic",
      "nodes": [0]
    }
  ],
  "nodes": [
    {
      "name": "Aqueduct root",
      "children": [1, 2, 3, 4, 5, 6, 7, 8, 9, 10]
    },
    { "name": "Pier west outer", "mesh": 0, "translation": [-3.0, 1.5, 0], "scale": [0.30, 1.50, 0.50] },
    { "name": "Pier west inner", "mesh": 0, "translation": [-1.5, 1.5, 0], "scale": [0.30, 1.50, 0.50] },
    { "name": "Pier center", "mesh": 0, "translation": [0, 1.5, 0], "scale": [0.30, 1.50, 0.50] },
    { "name": "Pier east inner", "mesh": 0, "translation": [1.5, 1.5, 0], "scale": [0.30, 1.50, 0.50] },
    { "name": "Pier east outer", "mesh": 0, "translation": [3.0, 1.5, 0], "scale": [0.30, 1.50, 0.50] },
    { "name": "Span west outer", "mesh": 0, "translation": [-2.25, 3.15, 0], "scale": [0.82, 0.20, 0.50] },
    { "name": "Span west inner", "mesh": 0, "translation": [-0.75, 3.15, 0], "scale": [0.82, 0.20, 0.50] },
    { "name": "Span east inner", "mesh": 0, "translation": [0.75, 3.15, 0], "scale": [0.82, 0.20, 0.50] },
    { "name": "Span east outer", "mesh": 0, "translation": [2.25, 3.15, 0], "scale": [0.82, 0.20, 0.50] },
    { "name": "Water channel", "mesh": 1, "translation": [0, 3.55, 0], "scale": [3.60, 0.16, 0.56] }
  ],
  "meshes": [
    {
      "name": "Stone cuboid",
      "primitives": [
        {
          "attributes": { "POSITION": 0 },
          "indices": 1,
          "material": 0
        }
      ]
    },
    {
      "name": "Water channel cuboid",
      "primitives": [
        {
          "attributes": { "POSITION": 0 },
          "indices": 1,
          "material": 1
        }
      ]
    }
  ],
  "materials": [
    {
      "name": "Weathered stone",
      "pbrMetallicRoughness": {
        "baseColorFactor": [0.56, 0.50, 0.39, 1.0],
        "metallicFactor": 0.0,
        "roughnessFactor": 0.9
      },
      "extensions": { "KHR_materials_unlit": {} }
    },
    {
      "name": "Water",
      "pbrMetallicRoughness": {
        "baseColorFactor": [0.25, 0.55, 0.67, 1.0],
        "metallicFactor": 0.0,
        "roughnessFactor": 0.4
      },
      "extensions": { "KHR_materials_unlit": {} }
    }
  ],
  "accessors": [
    {
      "bufferView": 0,
      "componentType": 5126,
      "count": 8,
      "type": "VEC3",
      "min": [-0.5, -0.5, -0.5],
      "max": [0.5, 0.5, 0.5]
    },
    {
      "bufferView": 1,
      "componentType": 5123,
      "count": 36,
      "type": "SCALAR"
    }
  ],
  "bufferViews": [
    { "buffer": 0, "byteOffset": 0, "byteLength": 96, "target": 34962 },
    { "buffer": 0, "byteOffset": 96, "byteLength": 72, "target": 34963 }
  ],
  "buffers": [
    {
      "byteLength": 168,
      "uri": "data:application/octet-stream;base64,"
    }
  ]
}
